<?xml version="1.0" encoding="UTF-8" standalone="no"?><!DOCTYPE svg PUBLIC "-//W3C//DTD SVG 1.1//EN" "http://www.w3.org/Graphics/SVG/1.1/DTD/svg11.dtd"><svg width="100%" height="100%" viewBox="0 0 718 540" version="1.1" xmlns="http://www.w3.org/2000/svg" xmlns:xlink="http://www.w3.org/1999/xlink" xml:space="preserve" xmlns:serif="http://www.serif.com/" style="fill-rule:evenodd;clip-rule:evenodd;stroke-linejoin:round;stroke-miterlimit:2;"><path d="M401.062,84.625c13.523,10.933 18.744,26.048 20.739,42.935c1.472,18.089 0.634,36.639 -2.801,54.44c-0.097,0.502 -0.097,0.502 -0.586,3.043c-8.19,41.099 -8.19,41.099 -17.414,53.957c-2.088,1.251 -2.088,1.251 -4.489,2.113c-0.444,0.161 -0.444,0.161 -2.69,0.971c-4.637,1.505 -9.298,2.852 -14.009,4.103c-0.946,0.26 -1.891,0.52 -2.865,0.788c-4.976,1.342 -9.826,2.437 -14.947,3.025c0.015,-0.658 0.031,-1.316 0.047,-1.993c0.643,-31.187 -5.552,-54.981 -21.047,-82.007c1.171,-0.026 2.343,-0.052 3.55,-0.078c13.842,-0.441 26.301,-2.511 36.387,-12.922c10.22,-12.335 13.313,-26.363 12.063,-42c-1.13,-4.952 -3.115,-8.632 -7,-11.937c-7.547,-4.635 -16.584,-4.613 -25.004,-2.883c-17.313,4.74 -31.87,15.182 -45.996,25.82c6.807,-16.003 35.107,-31.446 50.246,-37.969c12.789,-4.789 23.565,-5.906 35.816,0.594Z" style="fill-rule:nonzero;"/><path d="M295,183c0.66,0.66 1.32,1.32 2,2c-0.225,0.208 -0.225,0.208 -1.363,1.258c-11.6,11.112 -25.438,26.595 -25.949,43.492c0.111,6.322 1.748,10.491 6.054,15.125c13.139,11.502 32.795,12.546 49.383,12.5c0.745,-0.001 1.49,-0.001 2.257,-0.002c13.829,-0.046 27.091,-1.383 40.618,-4.373c0.975,-0.214 1.949,-0.429 2.954,-0.649c14.427,-3.274 30.144,-7.195 43.119,-14.522c1.927,-0.829 1.927,-0.829 4.927,0.171c-6.136,5.148 -12.316,9.046 -19.562,12.438c-0.994,0.468 -1.988,0.936 -3.012,1.418c-26.48,12.155 -55.632,19.552 -84.833,19.46c-2.093,-0.003 -4.184,0.02 -6.277,0.045c-15.789,0.075 -33.029,-2.29 -45.625,-12.65c-4.815,-4.871 -6.978,-9.733 -7.253,-16.586c1.003,-21.363 18.758,-38.456 33.562,-52.125c2.918,-2.462 5.878,-4.803 9,-7Z" style="fill:#949598;fill-rule:nonzero;"/><path d="M94,385l47,0c-2.124,10.619 -3.075,13.836 -11,20l5,1c-0.433,1.814 -0.871,3.626 -1.312,5.438l-0.739,3.058c-1.143,4.219 -2.567,8.357 -3.949,12.504l-42,0c4.578,-18.313 4.578,-18.313 7.418,-26.566c1.976,-6.002 2.44,-9.718 -0.418,-15.434Zm16,10l-1,6l2.875,0.062c4.302,-0.086 4.302,-0.086 10.125,-6.062l-12,0Zm-5,16l-1,5l15,0l1,-5l-15,0Z"/><path d="M543,385l47,0c-2.533,10.133 -5.123,20.062 -8.25,30l-1.102,3.539c-0.878,2.822 -1.763,5.641 -2.648,8.461l-14,0c2.875,-11.75 2.875,-11.75 4,-14l-14,1l-1.938,5.938c-1.937,5.937 -1.937,5.937 -3.062,7.062c-2.186,0.073 -4.375,0.084 -6.562,0.062l-3.629,-0.027l-2.809,-0.035c1.48,-8.53 3.968,-16.582 6.697,-24.785c2.1,-6.591 2.513,-10.584 0.303,-17.215Zm19.16,9.902c-4.146,0.128 -4.146,0.128 -5.16,8.098l3.027,0.035l3.91,0.027c2.355,0.021 4.71,0.01 7.063,-0.062c1.125,-1.125 1.125,-1.125 2,-8l-3.028,-0.036l-3.91,-0.027l-3.902,-0.035Z"/><path d="M244,385l47,0c-1.213,6.066 -2.362,11.623 -4.129,17.469l-0.589,1.96c-0.406,1.345 -0.813,2.689 -1.223,4.033c-0.628,2.061 -1.249,4.123 -1.87,6.186c-3.033,10.039 -3.033,10.039 -4.189,12.352l-14,0l4,-14l-14,1l-4,13l-14,0c2.139,-8.986 4.428,-17.849 7.425,-26.594c1.979,-5.989 2.426,-9.703 -0.425,-15.406Zm16,10c-1.125,2.25 -1.125,2.25 -2,8l3.027,0.035l3.911,0.027c2.354,0.022 4.709,0.011 7.062,-0.062c1.125,-1.125 1.125,-1.125 2,-8l-14,0Z"/><path d="M310,442l44,0c-1.214,6.072 -2.332,11.511 -4.164,17.32l-1.092,3.493l-1.369,4.312l-4.375,13.875l-40,0c2.161,-8.644 4.459,-17.128 7.189,-25.594l0.799,-2.648l0.736,-2.34c0.276,-2.418 0.276,-2.418 -1.724,-8.418Zm15,10c-2.238,6.308 -3.794,12.416 -5,19l12,0c2.212,-6.35 4.39,-12.293 5,-19l-12,0Z" style="fill:#949598;"/><path d="M144,385l47,0c-1.281,6.403 -2.579,12.402 -4.562,18.562l-0.67,2.151c-1.632,5.151 -1.632,5.151 -2.768,6.287l-7,0l3,15l-14,0c-3,-11.625 -3,-11.625 -3,-15l-7,0l-0.621,2.52l-0.817,3.292l-0.808,3.27c-0.515,1.992 -1.103,3.966 -1.754,5.918l-14,0c2.139,-8.986 4.428,-17.849 7.425,-26.594c1.979,-5.989 2.426,-9.703 -0.425,-15.406Zm16,10l-2,7l15,0l1,-7l-14,0Z"/><path d="M593,385l47,0c-3.451,13.804 -3.451,13.804 -5.688,20.25l-0.681,2.004c-0.539,1.583 -1.085,3.165 -1.631,4.746l-7,0l3,15l-14,0l-4,-14l-6,0l-0.84,2.809l-1.098,3.629l-1.089,3.621c-0.973,2.941 -0.973,2.941 -1.973,3.941c-2.186,0.073 -4.375,0.084 -6.562,0.062l-3.629,-0.027l-2.809,-0.035c1.48,-8.53 3.968,-16.582 6.697,-24.785c2.1,-6.591 2.513,-10.584 0.303,-17.215Zm19.16,9.902c-4.122,0.127 -4.122,0.127 -5.16,7.098l3.027,0.035l3.91,0.027c2.355,0.021 4.71,0.01 7.063,-0.062c1.125,-1.125 1.125,-1.125 2,-7l-3.028,-0.036l-3.91,-0.027l-3.902,-0.035Z"/><path d="M366,385l19,0c2.64,5.28 5.28,10.56 8,16c2.149,-3.224 3.025,-5.984 4.125,-9.688c0.619,-2.083 1.238,-4.166 1.875,-6.312l14,0c-2.251,9.353 -4.892,18.55 -7.688,27.75c-0.42,1.391 -0.84,2.781 -1.259,4.172c-1.014,3.36 -2.034,6.719 -3.053,10.078l-14,0c-1.338,-2.623 -2.671,-5.248 -4,-7.875c-0.382,-0.746 -0.763,-1.493 -1.156,-2.262c-0.361,-0.715 -0.722,-1.431 -1.094,-2.168c-0.335,-0.66 -0.67,-1.319 -1.016,-1.999c-0.734,-1.696 -0.734,-1.696 -0.734,-3.696l-2,0c-0.103,0.949 -0.206,1.897 -0.312,2.875c-1.719,12.156 -1.719,12.156 -4.688,15.125c-2.186,0.073 -4.375,0.084 -6.562,0.062c-0.599,-0.004 -0.599,-0.004 -3.629,-0.027c-0.927,-0.011 -1.854,-0.023 -2.809,-0.035c1.48,-8.53 3.968,-16.582 6.697,-24.785c2.1,-6.591 2.513,-10.584 0.303,-17.215Z" style="fill-rule:nonzero;"/><path d="M390,259c0,13.336 -19.3,31.948 -28,41c-0.513,0.55 -1.027,1.1 -1.556,1.666c-13.842,14.788 -29.505,26.007 -47.444,35.334c-0.358,0.193 -0.358,0.193 -2.167,1.167c-0.716,0.377 -1.431,0.754 -2.169,1.142c-0.653,0.347 -1.305,0.694 -1.978,1.052c-0.278,0.106 -0.278,0.106 -1.686,0.639c-0.66,-0.33 -1.32,-0.66 -2,-1c0.463,-0.427 0.925,-0.854 1.402,-1.294c17.876,-16.546 32.858,-33.329 44.563,-54.827c0.337,-0.609 0.675,-1.218 1.022,-1.845c1.013,-2.034 1.013,-2.034 1.926,-4.574c1.617,-4.13 2.823,-6.76 6.792,-8.957c3.343,-1.178 6.665,-2.099 10.107,-2.941c2.299,-0.621 4.597,-1.245 6.895,-1.871c1.081,-0.282 2.162,-0.564 3.276,-0.855c3.786,-1.049 7.374,-2.371 11.017,-3.836Z" style="fill-rule:nonzero;"/><path d="M194,385l47,0c-0.66,3.3 -1.32,6.6 -2,10l-29,0c-0.33,1.98 -0.66,3.96 -1,6l27,0c-1,7 -1,7 -2,10l-29,0c-0.33,1.65 -0.66,3.3 -1,5l28,0c-0.99,3.63 -1.98,7.26 -3,11l-42,0c4.578,-18.313 4.578,-18.313 7.418,-26.566c1.976,-6.002 2.44,-9.718 -0.418,-15.434Z" style="fill-rule:nonzero;"/><path d="M416,385l47,0c-0.99,3.3 -1.98,6.6 -3,10c-9.24,0.33 -18.48,0.66 -28,1c-1.98,6.6 -3.96,13.2 -6,20c4.62,-0.33 9.24,-0.66 14,-1c0.33,-1.32 0.66,-2.64 1,-4l-6,0c0.308,-1.48 0.622,-2.959 0.938,-4.438c0.087,-0.411 0.087,-0.411 0.527,-2.496c0.535,-2.066 0.535,-2.066 1.535,-3.066c1.489,-0.087 2.981,-0.107 4.473,-0.098c0.899,0.004 1.798,0.007 2.724,0.01c0.946,0.008 1.891,0.017 2.865,0.026c0.95,0.004 1.899,0.009 2.877,0.013c2.354,0.012 4.707,0.028 7.061,0.049c-1.782,8.909 -4.403,17.172 -7,26l-42,0c2.241,-11.206 2.241,-11.206 3.762,-15.797c0.314,-0.978 0.627,-1.957 0.951,-2.965c0.655,-2.009 1.317,-4.017 1.984,-6.023c2.1,-6.591 2.513,-10.584 0.303,-17.215Z" style="fill-rule:nonzero;"/><path d="M493,385l47,0c-4,16 -4,16 -8,28l-28,1l-4,12c-1,1 -1,1 -3.941,1.098l-3.621,-0.036l-3.629,-0.027l-2.809,-0.035c1.48,-8.53 3.968,-16.582 6.697,-24.785c2.1,-6.591 2.513,-10.584 0.303,-17.215Zm19.16,9.902c-4.146,0.128 -4.146,0.128 -5.16,8.098l3.027,0.035l3.91,0.027c2.355,0.021 4.71,0.01 7.063,-0.062c1.125,-1.125 1.125,-1.125 2,-8l-3.028,-0.036l-3.91,-0.027l-3.902,-0.035Z"/><path d="M264,442l44,0c-0.66,3.3 -1.32,6.6 -2,10l-27,0c-0.66,3.3 -1.32,6.6 -2,10c-0.885,3.059 -1.934,5.996 -3,9l12,0c0.33,-1.32 0.66,-2.64 1,-4l-5,0c-1,-2 -1,-2 -0.477,-3.91c0.281,-0.71 0.562,-1.421 0.852,-2.152c0.276,-0.713 0.552,-1.426 0.836,-2.161c0.789,-1.777 0.789,-1.777 1.789,-2.777c1.343,-0.086 2.69,-0.107 4.035,-0.098c0.809,0.004 1.618,0.007 2.451,0.01c0.85,0.008 1.701,0.017 2.576,0.026c0.855,0.004 1.709,0.009 2.588,0.013c2.117,0.012 4.233,0.03 6.35,0.049c1.424,2.848 0.508,4.221 -0.434,7.227c-0.286,0.928 -0.573,1.857 -0.868,2.815c-0.375,1.182 -0.75,2.365 -1.136,3.583c-1.175,3.754 -2.351,7.507 -3.562,11.375l-40,0c2.161,-8.644 4.459,-17.128 7.189,-25.594c0.264,-0.874 0.528,-1.748 0.799,-2.648c0.243,-0.772 0.486,-1.544 0.736,-2.34c0.276,-2.418 0.276,-2.418 -1.724,-8.418Z" style="fill:#949598;fill-rule:nonzero;"/><path d="M294,385l19,0c-1.32,5.28 -2.64,10.56 -4,16c8.963,-2.241 9,-3 14,-6c0.99,-2.97 3.98,-6.94 5,-10l13,0c-1.606,9.268 -3.371,14.319 -11,20l-2,0c0.407,0.499 0.815,0.998 1.234,1.512c2.702,3.878 3.975,6.183 3.207,10.98c-1.016,3.214 -2.218,6.367 -3.441,9.508l-14,0c0.179,-1.237 1.179,-2.237 2.074,-8.422c-1.091,-6.158 -4.074,-6.898 -4.074,-7.578l-8,0c-1.32,5.28 -2.64,10.56 -4,16l-14,0c0.556,-2.335 1.118,-4.668 1.688,-7c0.174,-0.715 0.348,-1.431 0.528,-2.168c0.944,-3.784 1.97,-7.509 3.198,-11.211c0.232,-0.702 0.465,-1.404 0.704,-2.127c0.452,-1.338 0.916,-2.671 1.394,-4c1.899,-5.627 1.338,-9.944 -0.512,-15.494Z" style="fill-rule:nonzero;"/><path d="M366.375,120.188c4.403,3.069 6.928,6.722 8.625,11.812c0.726,6.999 0.69,12.593 -3.574,18.383c-3.861,4.38 -7.819,7.206 -13.684,7.875c-6.114,0.281 -10.745,-0.629 -15.742,-4.258c-3.788,-3.604 -6.736,-7.537 -7.301,-12.804c-0.029,-7.551 0.543,-12.075 5.676,-17.883c7.736,-6.815 16.786,-8.491 26,-3.125Z" style="fill-rule:nonzero;"/><path d="M398,442l45,0c-0.99,3.3 -1.98,6.6 -3,10c-8.58,0.33 -17.16,0.66 -26,1c-0.33,0.99 -0.66,1.98 -1,3l25,0c-1,7 -1,7 -3,11l-26,0c-0.66,2.97 -1.32,5.94 -2,9c-0.33,0.825 -0.33,0.825 -2,5l-13,0c0.742,-7.536 3.268,-14.483 5.648,-21.639c2.121,-6.651 2.582,-10.67 0.352,-17.361Z" style="fill:#949598;fill-rule:nonzero;"/><path d="M338,112c0.165,0.33 0.165,0.33 1,2c-0.487,0.366 -0.975,0.732 -1.477,1.109c-6.805,5.197 -13.261,10.766 -19.74,16.358c-2.746,2.361 -5.514,4.698 -8.283,7.033c-4.563,3.85 -9.1,7.73 -13.625,11.625c-5.153,4.435 -10.372,8.771 -15.668,13.035c-3.984,3.322 -3.984,3.322 -5.207,4.84c0.033,1.935 0.069,3.871 0.141,5.805c-0.251,3.912 -1.906,7.028 -4.141,10.195c-2.769,2.332 -4.433,2.917 -8,3.438c-3.831,-0.559 -5.347,-1.638 -8,-4.438c-1.667,-3.73 -2.455,-6.933 -2,-11c1.582,-1.749 1.582,-1.749 3.812,-3.332c0.825,-0.596 1.65,-1.193 2.5,-1.807c0.887,-0.614 1.774,-1.228 2.688,-1.861c0.866,-0.615 1.733,-1.231 2.625,-1.865c2.778,-1.961 5.574,-3.894 8.375,-5.823c2.045,-1.414 4.089,-2.83 6.133,-4.246c0.998,-0.69 1.996,-1.381 3.024,-2.093c3.92,-2.721 7.822,-5.467 11.718,-8.223c0.679,-0.48 1.358,-0.96 2.057,-1.454c2.713,-1.919 5.425,-3.839 8.134,-5.762c11.229,-7.968 22.55,-15.79 33.934,-23.534Z" style="fill-rule:nonzero;"/><path d="M356,442l18,0c-1.639,10 -4.882,19.374 -8,29l24,0c-0.99,3.3 -1.98,6.6 -3,10l-38,0c2.161,-8.644 4.459,-17.128 7.189,-25.594c0.264,-0.874 0.528,-1.748 0.799,-2.648c0.243,-0.772 0.486,-1.544 0.736,-2.34c0.276,-2.418 0.276,-2.418 -1.724,-8.418Z" style="fill:#949598;fill-rule:nonzero;"/><path d="M344,385l19,0c-2.251,9.353 -4.892,18.55 -7.688,27.75c-0.42,1.391 -0.84,2.781 -1.259,4.172c-1.014,3.36 -2.034,6.719 -3.053,10.078l-14,0c2.139,-8.986 4.428,-17.849 7.425,-26.594c1.979,-5.989 2.426,-9.703 -0.425,-15.406Z" style="fill-rule:nonzero;"/><rect x="459" y="457" width="156" height="3" style="fill-rule:nonzero;"/><rect x="83" y="457" width="156" height="3" style="fill-rule:nonzero;"/><path d="M460,208c3.579,3.122 5.29,5.286 5.625,10.062c-0.741,4.668 -1.965,6.062 -5.625,8.938c-2.82,1.41 -4.87,1.245 -8,1c-2.774,-1.261 -4.483,-2.311 -6.312,-4.75c-1.016,-3.324 -1.106,-5.787 -0.688,-9.25c3.728,-6.424 7.899,-7.836 15,-6Z" style="fill:#949598;fill-rule:nonzero;"/></svg>