<?xml version="1.0" encoding="UTF-8"?>
<!-- Generator: visioncortex VTracer 0.6.12 -->
<svg xmlns="http://www.w3.org/2000/svg" viewBox="0 0 718 540" width="718" height="540">
<path d="M0 0 C13.523 10.933 18.744 26.048 20.739 42.935 C22.211 61.024 21.373 79.574 17.938 97.375 C17.841 97.877 17.841 97.877 17.352 100.418 C9.162 141.517 9.162 141.517 -0.062 154.375 C-2.15 155.626 -2.15 155.626 -4.551 156.488 C-4.995 156.649 -4.995 156.649 -7.241 157.459 C-11.878 158.964 -16.539 160.311 -21.25 161.562 C-22.196 161.822 -23.141 162.082 -24.115 162.35 C-29.091 163.692 -33.941 164.787 -39.062 165.375 C-39.047 164.717 -39.031 164.059 -39.015 163.382 C-38.372 132.195 -44.567 108.401 -60.062 81.375 C-58.891 81.349 -57.719 81.323 -56.512 81.297 C-42.67 80.856 -30.211 78.786 -20.125 68.375 C-9.905 56.04 -6.812 42.012 -8.062 26.375 C-9.192 21.423 -11.177 17.743 -15.062 14.438 C-22.609 9.803 -31.646 9.825 -40.066 11.555 C-57.379 16.295 -71.936 26.737 -86.062 37.375 C-79.255 21.372 -50.955 5.929 -35.816 -0.594 C-23.027 -5.383 -12.251 -6.5 0 0 Z " fill="#000000" transform="translate(401.0625,84.625)"/>
<path d="M0 0 C0.66 0.66 1.32 1.32 2 2 C1.775 2.208 1.775 2.208 0.637 3.258 C-10.963 14.37 -24.801 29.853 -25.312 46.75 C-25.201 53.072 -23.564 57.241 -19.258 61.875 C-6.119 73.377 13.537 74.421 30.125 74.375 C30.87 74.374 31.615 74.374 32.382 74.373 C46.211 74.327 59.473 72.99 73 70 C73.975 69.786 74.949 69.571 75.954 69.351 C90.381 66.077 106.098 62.156 119.073 54.829 C121 54 121 54 124 55 C117.864 60.148 111.684 64.046 104.438 67.438 C103.444 67.906 102.45 68.374 101.426 68.856 C74.946 81.011 45.794 88.408 16.593 88.316 C14.5 88.313 12.409 88.336 10.316 88.361 C-5.473 88.436 -22.713 86.071 -35.309 75.711 C-40.124 70.84 -42.287 65.978 -42.562 59.125 C-41.559 37.762 -23.804 20.669 -9 7 C-6.082 4.538 -3.122 2.197 0 0 Z " fill="#949598" transform="translate(295,183)"/>
<path d="M0 0 C15.51 0 31.02 0 47 0 C44.876 10.619 43.925 13.836 36 20 C37.65 20.33 39.3 20.66 41 21 C40.567 22.814 40.129 24.626 39.688 26.438 C39.444 27.447 39.2 28.456 38.949 29.496 C37.806 33.715 36.382 37.853 35 42 C21.14 42 7.28 42 -7 42 C-2.422 23.687 -2.422 23.687 0.418 15.434 C2.394 9.432 2.858 5.716 0 0 Z " fill="#000000" transform="translate(94,385)"/>
<path d="M0 0 C15.51 0 31.02 0 47 0 C44.467 10.133 41.877 20.062 38.75 30 C38.386 31.168 38.023 32.336 37.648 33.539 C36.77 36.361 35.885 39.18 35 42 C30.38 42 25.76 42 21 42 C23.875 30.25 23.875 30.25 25 28 C20.38 28.33 15.76 28.66 11 29 C10.361 30.959 9.721 32.919 9.062 34.938 C7.125 40.875 7.125 40.875 6 42 C3.814 42.073 1.625 42.084 -0.562 42.062 C-1.161 42.058 -1.161 42.058 -4.191 42.035 C-5.118 42.024 -6.045 42.012 -7 42 C-5.52 33.47 -3.032 25.418 -0.303 17.215 C1.797 10.624 2.21 6.631 0 0 Z " fill="#000000" transform="translate(543,385)"/>
<path d="M0 0 C15.51 0 31.02 0 47 0 C45.787 6.066 44.638 11.623 42.871 17.469 C42.774 17.792 42.774 17.792 42.282 19.429 C41.876 20.774 41.469 22.118 41.059 23.462 C40.431 25.523 39.81 27.585 39.189 29.648 C36.156 39.687 36.156 39.687 35 42 C30.38 42 25.76 42 21 42 C21.66 39.69 21.66 39.69 25 28 C20.38 28.33 15.76 28.66 11 29 C9.68 33.29 8.36 37.58 7 42 C2.38 42 -2.24 42 -7 42 C-4.861 33.014 -2.572 24.151 0.425 15.406 C2.404 9.417 2.851 5.703 0 0 Z " fill="#000000" transform="translate(244,385)"/>
<path d="M0 0 C14.52 0 29.04 0 44 0 C42.786 6.072 41.668 11.511 39.836 17.32 C39.475 18.473 39.115 19.625 38.744 20.813 C38.292 22.236 37.84 23.659 37.375 25.125 C36.653 27.414 36.653 27.414 33 39 C19.8 39 6.6 39 -7 39 C-4.839 30.356 -2.541 21.872 0.189 13.406 C0.453 12.532 0.717 11.658 0.988 10.758 C1.231 9.986 1.474 9.214 1.724 8.418 C2 6 2 6 0 0 Z " fill="#949598" transform="translate(310,442)"/>
<path d="M0 0 C15.51 0 31.02 0 47 0 C45.719 6.403 44.421 12.402 42.438 18.562 C42.216 19.272 41.995 19.982 41.768 20.713 C40.136 25.864 40.136 25.864 39 27 C36.69 27 34.38 27 32 27 C32.99 31.95 33.98 36.9 35 42 C30.38 42 25.76 42 21 42 C18 30.375 18 30.375 18 27 C15.69 27 13.38 27 11 27 C10.795 27.831 10.59 28.663 10.379 29.52 C10.109 30.606 9.84 31.693 9.562 32.812 C9.296 33.891 9.029 34.97 8.754 36.082 C8.239 38.074 7.651 40.048 7 42 C2.38 42 -2.24 42 -7 42 C-4.861 33.014 -2.572 24.151 0.425 15.406 C2.404 9.417 2.851 5.703 0 0 Z " fill="#000000" transform="translate(144,385)"/>
<path d="M0 0 C15.51 0 31.02 0 47 0 C43.549 13.804 43.549 13.804 41.312 20.25 C41.088 20.911 40.863 21.573 40.631 22.254 C40.092 23.837 39.546 25.419 39 27 C36.69 27 34.38 27 32 27 C32.99 31.95 33.98 36.9 35 42 C30.38 42 25.76 42 21 42 C19.68 37.38 18.36 32.76 17 28 C15.02 28 13.04 28 11 28 C10.723 28.927 10.446 29.854 10.16 30.809 C9.798 32.006 9.436 33.204 9.062 34.438 C8.703 35.632 8.343 36.827 7.973 38.059 C7 41 7 41 6 42 C3.814 42.073 1.625 42.084 -0.562 42.062 C-1.161 42.058 -1.161 42.058 -4.191 42.035 C-5.118 42.024 -6.045 42.012 -7 42 C-5.52 33.47 -3.032 25.418 -0.303 17.215 C1.797 10.624 2.21 6.631 0 0 Z " fill="#000000" transform="translate(593,385)"/>
<path d="M0 0 C6.27 0 12.54 0 19 0 C21.64 5.28 24.28 10.56 27 16 C29.149 12.776 30.025 10.016 31.125 6.312 C31.744 4.229 32.363 2.146 33 0 C37.62 0 42.24 0 47 0 C44.749 9.353 42.108 18.55 39.312 27.75 C38.892 29.141 38.472 30.531 38.053 31.922 C37.039 35.282 36.019 38.641 35 42 C30.38 42 25.76 42 21 42 C19.662 39.377 18.329 36.752 17 34.125 C16.618 33.379 16.237 32.632 15.844 31.863 C15.483 31.148 15.122 30.432 14.75 29.695 C14.415 29.035 14.08 28.376 13.734 27.696 C13 26 13 26 13 24 C12.34 24 11.68 24 11 24 C10.897 24.949 10.794 25.897 10.688 26.875 C8.969 39.031 8.969 39.031 6 42 C3.814 42.073 1.625 42.084 -0.562 42.062 C-1.161 42.058 -1.161 42.058 -4.191 42.035 C-5.118 42.024 -6.045 42.012 -7 42 C-5.52 33.47 -3.032 25.418 -0.303 17.215 C1.797 10.624 2.21 6.631 0 0 Z " fill="#000000" transform="translate(366,385)"/>
<path d="M0 0 C0 13.336 -19.3 31.948 -28 41 C-28.513 41.55 -29.027 42.1 -29.556 42.666 C-43.398 57.454 -59.061 68.673 -77 78 C-77.358 78.193 -77.358 78.193 -79.167 79.167 C-79.883 79.544 -80.598 79.921 -81.336 80.309 C-81.989 80.656 -82.641 81.003 -83.314 81.361 C-83.592 81.467 -83.592 81.467 -85 82 C-85.66 81.67 -86.32 81.34 -87 81 C-86.537 80.573 -86.075 80.146 -85.598 79.706 C-67.722 63.16 -52.74 46.377 -41.035 24.879 C-40.698 24.27 -40.36 23.661 -40.013 23.034 C-39 21 -39 21 -38.087 18.46 C-36.47 14.33 -35.264 11.7 -31.295 9.503 C-27.952 8.325 -24.63 7.404 -21.188 6.562 C-18.889 5.941 -16.591 5.317 -14.293 4.691 C-13.212 4.409 -12.131 4.127 -11.017 3.836 C-7.231 2.787 -3.643 1.465 0 0 Z " fill="#000000" transform="translate(390,259)"/>
<path d="M0 0 C15.51 0 31.02 0 47 0 C46.34 3.3 45.68 6.6 45 10 C35.43 10 25.86 10 16 10 C15.67 11.98 15.34 13.96 15 16 C23.91 16 32.82 16 42 16 C41 23 41 23 40 26 C30.43 26 20.86 26 11 26 C10.67 27.65 10.34 29.3 10 31 C19.24 31 28.48 31 38 31 C37.01 34.63 36.02 38.26 35 42 C21.14 42 7.28 42 -7 42 C-2.422 23.687 -2.422 23.687 0.418 15.434 C2.394 9.432 2.858 5.716 0 0 Z " fill="#000000" transform="translate(194,385)"/>
<path d="M0 0 C15.51 0 31.02 0 47 0 C46.01 3.3 45.02 6.6 44 10 C34.76 10.33 25.52 10.66 16 11 C14.02 17.6 12.04 24.2 10 31 C14.62 30.67 19.24 30.34 24 30 C24.33 28.68 24.66 27.36 25 26 C23.02 26 21.04 26 19 26 C19.308 24.52 19.622 23.041 19.938 21.562 C20.025 21.151 20.025 21.151 20.465 19.066 C21 17 21 17 22 16 C23.489 15.913 24.981 15.893 26.473 15.902 C27.372 15.906 28.271 15.909 29.197 15.912 C30.143 15.92 31.088 15.929 32.062 15.938 C33.012 15.942 33.961 15.947 34.939 15.951 C37.293 15.963 39.646 15.979 42 16 C40.218 24.909 37.597 33.172 35 42 C21.14 42 7.28 42 -7 42 C-4.759 30.794 -4.759 30.794 -3.238 26.203 C-2.924 25.225 -2.611 24.246 -2.287 23.238 C-1.632 21.229 -0.97 19.221 -0.303 17.215 C1.797 10.624 2.21 6.631 0 0 Z " fill="#000000" transform="translate(416,385)"/>
<path d="M0 0 C15.51 0 31.02 0 47 0 C43 16 43 16 39 28 C29.76 28.33 20.52 28.66 11 29 C9.68 32.96 8.36 36.92 7 41 C6 42 6 42 3.059 42.098 C1.864 42.086 0.669 42.074 -0.562 42.062 C-1.161 42.058 -1.161 42.058 -4.191 42.035 C-5.118 42.024 -6.045 42.012 -7 42 C-5.52 33.47 -3.032 25.418 -0.303 17.215 C1.797 10.624 2.21 6.631 0 0 Z " fill="#000000" transform="translate(493,385)"/>
<path d="M0 0 C14.52 0 29.04 0 44 0 C43.34 3.3 42.68 6.6 42 10 C33.09 10 24.18 10 15 10 C14.34 13.3 13.68 16.6 13 20 C12.115 23.059 11.066 25.996 10 29 C13.96 29 17.92 29 22 29 C22.33 27.68 22.66 26.36 23 25 C21.35 25 19.7 25 18 25 C17 23 17 23 17.523 21.09 C17.804 20.38 18.085 19.669 18.375 18.938 C18.651 18.225 18.927 17.512 19.211 16.777 C20 15 20 15 21 14 C22.343 13.914 23.69 13.893 25.035 13.902 C25.844 13.906 26.653 13.909 27.486 13.912 C28.336 13.92 29.187 13.929 30.062 13.938 C30.917 13.942 31.771 13.947 32.65 13.951 C34.767 13.963 36.883 13.981 39 14 C40.424 16.848 39.508 18.221 38.566 21.227 C38.28 22.155 37.993 23.084 37.698 24.042 C37.323 25.224 36.948 26.407 36.562 27.625 C35.387 31.379 34.211 35.132 33 39 C19.8 39 6.6 39 -7 39 C-4.839 30.356 -2.541 21.872 0.189 13.406 C0.453 12.532 0.717 11.658 0.988 10.758 C1.231 9.986 1.474 9.214 1.724 8.418 C2 6 2 6 0 0 Z " fill="#949598" transform="translate(264,442)"/>
<path d="M0 0 C6.27 0 12.54 0 19 0 C17.68 5.28 16.36 10.56 15 16 C23.963 13.759 23.963 13.759 26.375 11.375 C29 9 29 9 31 9 C31.99 6.03 32.98 3.06 34 0 C38.29 0 42.58 0 47 0 C45.394 9.268 43.629 14.319 36 20 C35.34 20 34.68 20 34 20 C34.407 20.499 34.815 20.998 35.234 21.512 C37.936 25.39 39.209 27.695 38.441 32.492 C37.425 35.706 36.223 38.859 35 42 C30.38 42 25.76 42 21 42 C21.179 40.763 21.179 40.763 22.074 34.578 C21.983 31.42 20.999 30.364 19 28 C19 27.34 19 26.68 19 26 C16.36 26 13.72 26 11 26 C9.68 31.28 8.36 36.56 7 42 C2.38 42 -2.24 42 -7 42 C-6.444 39.665 -5.882 37.332 -5.312 35 C-5.138 34.285 -4.964 33.569 -4.784 32.832 C-3.84 29.048 -2.814 25.323 -1.586 21.621 C-1.354 20.919 -1.121 20.217 -0.882 19.494 C-0.43 18.156 0.034 16.823 0.512 15.494 C2.411 9.867 1.85 5.55 0 0 Z " fill="#000000" transform="translate(294,385)"/>
<path d="M0 0 C4.403 3.069 6.928 6.722 8.625 11.812 C9.351 18.811 9.315 24.405 5.051 30.195 C1.19 34.575 -2.768 37.401 -8.633 38.07 C-14.747 38.351 -19.378 37.441 -24.375 33.812 C-28.163 30.208 -31.111 26.275 -31.676 21.008 C-31.705 13.457 -31.133 8.933 -26 3.125 C-18.264 -3.69 -9.214 -5.366 0 0 Z " fill="#000000" transform="translate(366.375,120.1875)"/>
<path d="M0 0 C14.85 0 29.7 0 45 0 C44.01 3.3 43.02 6.6 42 10 C33.42 10.33 24.84 10.66 16 11 C15.67 11.99 15.34 12.98 15 14 C23.25 14 31.5 14 40 14 C39 21 39 21 37 25 C28.42 25 19.84 25 11 25 C10.34 27.97 9.68 30.94 9 34 C8.67 34.825 8.67 34.825 7 39 C2.71 39 -1.58 39 -6 39 C-5.258 31.464 -2.732 24.517 -0.352 17.361 C1.769 10.71 2.23 6.691 0 0 Z " fill="#949598" transform="translate(398,442)"/>
<path d="M0 0 C0.165 0.33 0.165 0.33 1 2 C0.513 2.366 0.025 2.732 -0.477 3.109 C-7.282 8.306 -13.738 13.875 -20.217 19.467 C-22.963 21.828 -25.731 24.165 -28.5 26.5 C-33.063 30.35 -37.6 34.23 -42.125 38.125 C-47.278 42.56 -52.497 46.896 -57.793 51.16 C-61.777 54.482 -61.777 54.482 -63 56 C-62.967 57.935 -62.931 59.871 -62.859 61.805 C-63.11 65.717 -64.765 68.833 -67 72 C-69.769 74.332 -71.433 74.917 -75 75.438 C-78.831 74.879 -80.347 73.8 -83 71 C-84.667 67.27 -85.455 64.067 -85 60 C-83.418 58.251 -83.418 58.251 -81.188 56.668 C-80.363 56.072 -79.538 55.475 -78.688 54.861 C-77.801 54.247 -76.914 53.633 -76 53 C-75.134 52.385 -74.267 51.769 -73.375 51.135 C-70.597 49.174 -67.801 47.241 -65 45.312 C-62.955 43.898 -60.911 42.482 -58.867 41.066 C-57.869 40.376 -56.871 39.685 -55.843 38.973 C-51.923 36.252 -48.021 33.506 -44.125 30.75 C-43.446 30.27 -42.767 29.79 -42.068 29.296 C-39.355 27.377 -36.643 25.457 -33.934 23.534 C-22.705 15.566 -11.384 7.744 0 0 Z " fill="#000000" transform="translate(338,112)"/>
<path d="M0 0 C5.94 0 11.88 0 18 0 C16.361 10 13.118 19.374 10 29 C17.92 29 25.84 29 34 29 C33.01 32.3 32.02 35.6 31 39 C18.46 39 5.92 39 -7 39 C-4.839 30.356 -2.541 21.872 0.189 13.406 C0.453 12.532 0.717 11.658 0.988 10.758 C1.231 9.986 1.474 9.214 1.724 8.418 C2 6 2 6 0 0 Z " fill="#949598" transform="translate(356,442)"/>
<path d="M0 0 C6.27 0 12.54 0 19 0 C16.749 9.353 14.108 18.55 11.312 27.75 C10.892 29.141 10.472 30.531 10.053 31.922 C9.039 35.282 8.019 38.641 7 42 C2.38 42 -2.24 42 -7 42 C-4.861 33.014 -2.572 24.151 0.425 15.406 C2.404 9.417 2.851 5.703 0 0 Z " fill="#000000" transform="translate(344,385)"/>
<path d="M0 0 C51.48 0 102.96 0 156 0 C156 0.99 156 1.98 156 3 C104.52 3 53.04 3 0 3 C0 2.01 0 1.02 0 0 Z " fill="#000000" transform="translate(459,457)"/>
<path d="M0 0 C51.48 0 102.96 0 156 0 C156 0.99 156 1.98 156 3 C104.52 3 53.04 3 0 3 C0 2.01 0 1.02 0 0 Z " fill="#000000" transform="translate(83,457)"/>
<path d="M0 0 C3.579 3.122 5.29 5.286 5.625 10.062 C4.884 14.73 3.66 16.124 0 19 C-2.82 20.41 -4.87 20.245 -8 20 C-10.774 18.739 -12.483 17.689 -14.312 15.25 C-15.328 11.926 -15.418 9.463 -15 6 C-11.272 -0.424 -7.101 -1.836 0 0 Z " fill="#949598" transform="translate(460,208)"/>
<path d="M0 0 C3.96 0 7.92 0 12 0 C11.39 6.707 9.212 12.65 7 19 C3.04 19 -0.92 19 -5 19 C-3.794 12.416 -2.238 6.308 0 0 Z " fill="#FFFFFF" transform="translate(325,452)"/>
<path d="M0 0 C0.644 0.006 0.644 0.006 3.902 0.035 C5.193 0.044 6.483 0.053 7.812 0.062 C8.812 0.074 9.811 0.086 10.84 0.098 C9.965 6.973 9.965 6.973 8.84 8.098 C6.487 8.17 4.132 8.181 1.777 8.16 C0.487 8.151 -0.803 8.142 -2.133 8.133 C-3.132 8.121 -4.131 8.11 -5.16 8.098 C-4.146 0.128 -4.146 0.128 0 0 Z " fill="#DCDDDE" transform="translate(562.16015625,394.90234375)"/>
<path d="M0 0 C0.644 0.006 0.644 0.006 3.902 0.035 C5.193 0.044 6.483 0.053 7.812 0.062 C8.812 0.074 9.811 0.086 10.84 0.098 C9.965 6.973 9.965 6.973 8.84 8.098 C6.487 8.17 4.132 8.181 1.777 8.16 C0.487 8.151 -0.803 8.142 -2.133 8.133 C-3.132 8.121 -4.131 8.11 -5.16 8.098 C-4.146 0.128 -4.146 0.128 0 0 Z " fill="#DBDCDD" transform="translate(512.16015625,394.90234375)"/>
<path d="M0 0 C4.62 0 9.24 0 14 0 C13.125 6.875 13.125 6.875 12 8 C9.647 8.073 7.292 8.084 4.938 8.062 C3.647 8.053 2.357 8.044 1.027 8.035 C0.028 8.024 -0.971 8.012 -2 8 C-1.125 2.25 -1.125 2.25 0 0 Z " fill="#DDDEDF" transform="translate(260,395)"/>
<path d="M0 0 C0.644 0.006 0.644 0.006 3.902 0.035 C5.193 0.044 6.483 0.053 7.812 0.062 C8.812 0.074 9.811 0.086 10.84 0.098 C9.965 5.973 9.965 5.973 8.84 7.098 C6.487 7.17 4.132 7.181 1.777 7.16 C0.487 7.151 -0.803 7.142 -2.133 7.133 C-3.132 7.121 -4.131 7.11 -5.16 7.098 C-4.122 0.127 -4.122 0.127 0 0 Z " fill="#D9D9DA" transform="translate(612.16015625,394.90234375)"/>
<path d="M0 0 C4.62 0 9.24 0 14 0 C13.67 2.31 13.34 4.62 13 7 C8.05 7 3.1 7 -2 7 C-1.34 4.69 -0.68 2.38 0 0 Z " fill="#DADADB" transform="translate(160,395)"/>
<path d="M0 0 C4.95 0 9.9 0 15 0 C14.67 1.65 14.34 3.3 14 5 C9.05 5 4.1 5 -1 5 C-0.67 3.35 -0.34 1.7 0 0 Z " fill="#E0E0E1" transform="translate(105,411)"/>
<path d="M0 0 C3.96 0 7.92 0 12 0 C6.177 5.976 6.177 5.976 1.875 6.062 C0.926 6.042 -0.022 6.021 -1 6 C-0.67 4.02 -0.34 2.04 0 0 Z " fill="#D1D2D3" transform="translate(110,395)"/>
</svg>
