<?xml version="1.0" encoding="UTF-8" standalone="no"?>
<!DOCTYPE svg PUBLIC "-//W3C//DTD SVG 1.1//EN" "http://www.w3.org/Graphics/SVG/1.1/DTD/svg11.dtd">
<svg width="100%" height="100%" viewBox="0 0 886 330" version="1.1" xmlns="http://www.w3.org/2000/svg" xmlns:xlink="http://www.w3.org/1999/xlink" xml:space="preserve" xmlns:serif="http://www.serif.com/" style="fill-rule:evenodd;clip-rule:evenodd;stroke-linejoin:round;stroke-miterlimit:2;">
    <g id="Background">
        
        <path d="M520.423,185.066C527.438,182.784 525.921,180.815 525.942,173.503C526.12,110.897 526.214,110.38 524.294,108.752C516.047,101.761 524.746,101.275 538.561,95.659C542.623,94.008 544.539,93.107 544.792,97.47C544.992,100.907 544,100.889 544.118,140.501C544.132,150.5 544.146,160.5 544.16,170.5C544.162,178.995 542.769,182.281 549.479,184.779C551.888,185.675 549.989,181.975 549.932,173.504C549.744,145.453 576.772,126.355 580.596,123.653C620.715,95.306 666.992,97.854 673.49,96.467C674.655,96.218 701.288,97.771 704.436,98.686C711.817,100.83 712.049,99.394 719.459,101.641C720.243,101.878 720.385,101.237 729.431,103.958C779.415,118.989 797.576,147.411 800.154,164.549C801.56,173.899 802.141,173.888 801.353,176.456C799.6,182.158 803.06,204.458 765.292,229.23C747.131,241.142 727.908,245.563 724.456,246.357C709.159,249.875 709.199,249.99 707.481,250.09C698.932,250.588 699.122,251.883 690.492,252.088C657.525,252.87 655.454,252.237 652.55,251.349C648.27,250.04 646.064,251.282 635.54,248.361C634.921,248.189 619.392,246.739 593.414,233.64C580.487,227.122 559.73,210.591 552.993,192.179C552.322,190.345 547.978,191.121 545.473,190.799C525.934,188.285 524.814,193.974 517.925,189.045C518.563,186.736 518.863,186.987 520.423,185.066ZM648.49,114.156C661.2,113.946 672.774,113.751 681.618,115.107C686.446,115.847 674.747,130.942 667.038,146.268C663.396,153.507 660.765,142.117 659.272,139.62C655.985,134.125 654.55,128.034 652.465,128.282C649.822,128.596 637.291,154.499 626.703,172.611C625.841,174.086 605.834,210.375 605.679,210.601C601.578,216.582 601.301,222.799 596.598,220.314C562.119,202.103 560.265,175.949 562.364,168.464C563.664,163.829 566.738,143.361 599.726,126.981C620.376,116.727 646.757,114.442 648.49,114.156ZM696.448,117.96C698.285,118.209 727.29,124.709 744.307,141.696C756.844,154.21 768.437,171.238 753.053,197.243C752.228,198.637 743.366,208.942 741.214,210.042C736.238,212.586 736.968,208.114 727.296,191.611C723.184,184.594 716.514,171.222 715.618,169.428C715.121,168.432 711.297,160.765 708.773,157.314C707.825,156.018 708.597,155.658 699.307,139.603C696.159,134.164 690.422,122.871 689.675,121.403C689.355,120.773 684.9,114.346 692.411,116.882C694.456,117.573 694.358,117.66 696.448,117.96ZM682.693,133.601C684.184,131.343 683.807,130.59 685.441,130.722C686.579,130.813 686.256,131.531 686.785,132.261C687.052,132.63 727.09,207.103 727.698,208.401C730.558,214.504 733.747,215.986 728.609,218.7C712.493,227.212 711.97,225.922 710.608,226.717C703.087,231.105 702.776,227.042 698.95,219.289C680.348,181.594 679.753,181.939 678.374,178.559C674.472,168.997 668.689,160.847 669.308,158.453C669.872,156.266 670.117,156.459 682.693,133.601Z" style="fill:white;fill-opacity:0.98;"/>
        <path d="M669.502,270.161C616.902,269.659 571.926,248.446 549.741,226.259C541.454,217.972 539.502,213.488 537.3,211.737C536.062,210.754 535.85,210.867 364.5,210.867C87.615,210.867 87.666,210.866 87.425,210.82C85.054,210.362 84.76,199.642 87.517,199.631C147.169,199.398 147.168,199.512 150.48,199.224C154.469,198.878 159.397,199.829 161.499,199.83C180.833,199.829 200.166,199.829 219.499,199.829C314.166,199.829 408.833,199.828 503.5,199.828C528.42,199.831 531.521,200.652 530.3,196.564C529.183,192.822 537.728,193.714 540.45,193.893C542.943,194.057 547.537,206.485 555.27,214.715C557.535,217.126 568.949,229.274 588.719,239.036C641.429,265.065 699.202,257.209 701.53,256.992C702.571,256.895 713.67,255.862 714.535,255.63C723.679,253.169 723.763,253.889 724.542,253.648C732.858,251.068 732.991,251.77 739.557,249.672C755.234,244.664 754.826,243.802 760.615,241.908C772.454,238.034 796.431,220.683 803.664,210.606C817.672,191.092 816.094,181.659 815.952,170.486C815.933,168.979 815.834,161.178 810.697,152.395C803.246,139.654 802.735,140.052 792.306,129.702C779.792,117.282 750.501,105.445 746.55,104.354C734.471,101.018 734.603,100.609 733.541,100.371C703.518,93.647 689.848,93.374 667.511,93.829C631.713,94.559 598.808,108.135 597.598,108.715C566.811,123.465 568.928,126.788 563.586,129.622C557.3,132.958 550.452,145.204 548.407,144.667C547.191,144.347 547.214,137.16 547.216,136.5C547.253,125.326 549.138,125.496 559.286,117.236C562.477,114.638 578.189,101.849 604.63,92.949C643.339,79.919 670.23,82.006 671.524,81.806C679.995,80.499 679.968,81.753 688.496,81.853C700.103,81.991 699.982,82.444 711.459,83.846C712.752,84.004 725.065,85.507 727.557,86.343C743.152,91.577 744.259,88.584 775.394,103.715C790.255,110.937 810.134,128.815 813.966,135.215C820.383,145.932 821.776,145.23 826.328,159.555C833.044,180.693 823.476,204.931 815.21,215.269C788.775,248.328 756.375,256.951 739.445,262.331C726.643,266.4 724.16,265.633 721.463,266.367C711.206,269.16 710.99,267.775 708.468,268.379C700.063,270.392 700,270.182 669.502,270.161Z" style="fill:white;fill-opacity:0.98;"/>
        <path d="M648.49,114.156C661.2,113.946 672.774,113.751 681.618,115.107C686.446,115.847 674.747,130.942 667.038,146.268C663.396,153.507 660.765,142.117 659.272,139.62C655.985,134.125 654.55,128.034 652.465,128.282C649.822,128.596 637.291,154.499 626.703,172.611C625.841,174.086 605.834,210.375 605.679,210.601C601.578,216.582 601.301,222.799 596.598,220.314C562.119,202.103 560.265,175.949 562.364,168.464C563.664,163.829 566.738,143.361 599.726,126.981C620.376,116.727 646.757,114.442 648.49,114.156Z" style="fill:rgb(24,24,24);fill-opacity:0.04;"/>
        <path d="M171.315,128.715C170.855,128.094 171.292,127.353 170.645,127.811C170.569,127.865 170.282,128.069 169.965,128.765C169.841,129.04 169.933,129.381 169.808,129.655C169.341,131.754 168.578,135.178 159.285,154.389C153.119,167.135 149.714,176.68 149.294,177.395C145.784,183.373 145.984,193.215 138.566,192.045C135.34,191.536 130.361,173.951 127.302,167.59C122.93,158.502 111.305,130.773 110.358,129.785C110.103,128.105 110.184,128.076 110.083,127.97C108.151,125.957 108.751,130.364 108.783,130.596C108.813,133.361 107.704,168.112 108.191,178.531C108.481,184.732 116.303,184.26 116.558,184.338C122.864,186.255 119.791,192.448 111.467,190.64C102.142,188.614 90.019,193.229 86.767,189.284C83.214,184.975 91.941,183.959 92.571,183.886C99.085,183.127 97.956,162.476 98.114,157.46C98.159,156.004 99.032,156.076 99.114,152.488C99.225,147.723 100.239,139.881 99.95,115.488C99.84,106.239 91.156,109.659 89.368,105.571C86.415,98.822 99.341,101.831 101.5,101.841C117.693,101.912 119.533,100.092 120.621,104.467C121.71,108.847 124.115,118.519 142.959,156.28C147.057,164.493 148.858,153.75 150.721,150.615C152.391,147.804 160.318,129.773 161.046,128.298C167.107,116.011 166.12,115.631 166.723,114.611C170.475,108.274 168.356,100.364 175.524,101.217C197.85,103.874 199.755,98.425 201.661,102.398C205.402,110.2 190.234,105.591 190.11,114.482C189.422,163.65 191.269,175.354 192.094,180.58C192.888,185.612 200.101,183.103 201.619,186.437C204.327,192.381 191.452,190.354 190.526,190.208C183.867,189.159 162.497,192.492 161.411,189.548C158.966,182.919 168.852,185.821 171.285,181.401C172.173,179.789 172.25,131.28 171.315,128.715Z" style="fill:white;fill-opacity:0.98;"/>
        <path d="M696.448,117.96C698.285,118.209 727.29,124.709 744.307,141.696C756.844,154.21 768.437,171.238 753.053,197.243C752.228,198.637 743.366,208.942 741.214,210.042C736.238,212.586 736.968,208.114 727.296,191.611C723.184,184.594 716.514,171.222 715.618,169.428C715.121,168.432 711.297,160.765 708.773,157.314C707.825,156.018 708.597,155.658 699.307,139.603C696.159,134.164 690.422,122.871 689.675,121.403C689.355,120.773 684.9,114.346 692.411,116.882C694.456,117.573 694.358,117.66 696.448,117.96Z" style="fill:rgb(24,24,24);fill-opacity:0.04;"/>
        <path d="M335.5,190.168C319.447,190.245 316.353,192.106 315.402,189.555C313.627,184.796 320.905,183.969 321.57,183.893C326.705,183.31 325.929,180.785 325.928,133.5C325.927,113.336 327.473,110.217 319.538,108.359C312.81,106.784 315.24,102.013 320.512,101.946C340.347,101.694 375.411,96.909 384.636,115.421C396.52,139.268 375.697,154.335 358.494,154.053C351.451,153.937 352.037,149.295 356.577,147.687C369.346,143.166 365.757,121.778 365.657,121.45C361.382,107.373 347.92,105.983 346.34,111.448C345.776,113.398 346.151,177.96 346.173,178.537C346.395,184.34 353.507,184.268 354.412,184.699C363.016,188.803 354.407,192.374 346.466,190.641C342.968,189.877 340.466,190.188 335.5,190.168Z" style="fill:white;fill-opacity:0.96;"/>
        <path d="M682.693,133.601C684.184,131.343 683.807,130.59 685.441,130.722C686.579,130.813 686.256,131.531 686.785,132.261C687.052,132.63 727.09,207.103 727.698,208.401C730.558,214.504 733.747,215.986 728.609,218.7C712.493,227.212 711.97,225.922 710.608,226.717C703.087,231.105 702.776,227.042 698.95,219.289C680.348,181.594 679.753,181.939 678.374,178.559C674.472,168.997 668.689,160.847 669.308,158.453C669.872,156.266 670.117,156.459 682.693,133.601Z" style="fill:rgb(24,24,24);fill-opacity:0.04;"/>
        <path d="M520.423,185.066C518.863,186.987 518.563,186.736 517.925,189.045C514.559,187.389 512.352,189.688 509.546,189.881C496.365,190.786 496.867,192.876 492.542,193.674C488.368,194.443 491.119,185.475 487.663,186.995C481.905,189.528 482.614,192.29 469.506,192.121C443.247,191.784 462.805,148.917 451.623,144.11C449.104,143.027 447.255,138.379 452.518,137.857C468.965,136.224 473.86,130.93 474.044,139.494C474.69,169.482 470.533,180.696 481.503,181.172C483.522,181.26 489.814,180.224 489.855,174.508C490.048,146.945 490.27,144.938 485.562,144.137C479.442,143.097 480.808,137.558 487.474,137.217C504.307,136.355 507.98,131.164 508.111,137.515C508.503,156.454 506.621,179.715 509.708,182.234C512.415,184.445 513.756,180.512 517.294,183.699C518.634,184.905 518.693,184.644 520.423,185.066Z" style="fill:white;fill-opacity:0.96;"/>
        <path d="M436.154,159.496C436.033,174.366 434.074,184.178 444.465,181.383C446.679,180.787 451.61,183.898 444.79,187.986C443.274,188.894 431.298,196.071 422.732,189.209C415.276,183.237 411.165,197.684 397.588,190.325C387.723,184.977 387.679,171.453 396.603,166.685C410.794,159.102 420.592,162.108 419.794,152.479C419.167,144.909 410.832,134.875 406.332,149.446C403.479,158.683 385.055,161.664 392.38,147.423C397.788,136.907 441.423,118.195 436.154,159.496ZM408.179,174.472C408.349,173.902 409.615,169.659 412.434,168.369C417.558,166.025 420.223,167.08 418.627,172.536C417.556,176.2 418.651,181.78 415.428,182.049C408.885,182.593 408.251,175.308 408.179,174.472Z" style="fill:white;fill-opacity:0.96;"/>
        <path d="M236.501,144.17C233.626,144.405 233.55,144.092 232.779,144.812C231.903,145.63 230.9,174.633 233.759,178.303C239.5,185.674 244.871,178.461 247.24,180.77C253.698,187.064 228.024,196.717 219.719,190.204C212.315,184.397 213.864,175.734 213.863,166.5C213.861,147.727 215.373,144.78 208.527,144.13C204.592,143.756 205.26,139.8 209.604,137.717C226.173,129.769 226.214,119.563 230.299,122.778C233.405,125.222 231.84,125.984 232.13,133.545C232.34,139.006 247.526,132.638 247.038,139.508C246.543,146.483 243.513,144.152 236.501,144.17Z" style="fill:white;fill-opacity:0.97;"/>
        <path d="M186.181,236.466C186.18,237.878 186.174,249.531 191.698,253.241C195.942,256.092 203.616,258.165 201.875,248.447C201.308,245.278 194.708,245.169 197.409,242.403C197.701,242.104 213.761,240.663 213.945,243.449C214.002,244.318 209.887,248.571 210.926,252.446C212.882,259.74 208.095,257.276 198.559,259.706C197.817,259.895 176.707,260.04 175.955,239.503C175.888,237.656 177.642,220.918 199.502,220.068C203.034,219.93 209.788,220.656 210.118,224.521C210.535,229.411 211.417,232.396 208.436,231.668C206.946,231.305 203.358,219.414 191.414,226.362C188.608,227.994 186.431,235.591 186.181,236.466Z" style="fill:white;fill-opacity:0.9;"/>
        <path d="M323.526,224.196C306.823,225.548 311.534,243.687 312.022,245.566C314.071,253.457 323.335,262.082 332.062,249.218C335.677,243.888 338.269,250.889 333.909,256.816C332.522,258.702 321.709,259.779 321.444,259.702C313.389,257.351 300.316,257.607 301.197,237.468C301.376,233.37 304.987,225.985 310.435,223.384C322.046,217.842 326.324,220.752 330.538,221.189C338.452,222.008 334.348,234.903 331.96,231.177C328.919,226.432 329.168,225.801 323.526,224.196Z" style="fill:white;fill-opacity:0.93;"/>
        <path d="M358.647,257.955C337.905,263.92 335.107,242.191 347.601,235.723C350.607,234.167 361.076,233.941 364.287,240.607C367.971,248.258 365.592,255.315 358.647,257.955ZM355.234,240.688C359.62,252.313 352.792,258.923 350.367,252.56C349.399,250.019 348.461,233.58 355.234,240.688Z" style="fill:white;fill-opacity:0.91;"/>
        <path d="M217.875,247.497C218.177,242.76 218.078,242.667 220.783,238.749C226.192,230.914 249.094,234.248 241.611,253.563C239.869,258.058 220.001,266.443 217.875,247.497ZM226.832,246.498C227.007,244.392 226.786,242.471 228.319,240.383C234.137,232.458 237.282,257.794 229.409,254.654C226.602,253.535 227.845,252.571 226.832,246.498Z" style="fill:white;fill-opacity:0.93;"/>
        <path d="M379.991,248.495C380.057,249.038 380.786,254.999 384.544,253.592C384.834,253.483 388.909,245.535 383.759,239.271C380.301,235.064 392.785,234.849 393.494,235.506C394.856,236.768 393.311,252.169 394.779,253.289C395.337,253.714 396.024,253.938 396.634,254.287C396.982,254.486 400.362,257.335 393.458,258.161C389.415,258.645 389.377,259.833 385.565,258.376C382.932,257.369 372.162,262.676 371.895,252.492C371.636,242.588 372.34,242.371 370.8,240.276C366.9,234.972 379.579,233.902 379.865,236.359C380.336,240.42 380.032,247.525 379.991,248.495Z" style="fill:white;fill-opacity:0.92;"/>
        <path d="M276.158,244.501C276.178,249.074 274.823,253.274 279.242,255.892C280.147,256.428 279.989,258.199 278.456,258.223C274.24,258.289 260.196,258.834 266.575,255.598C268.25,254.749 269.43,242.83 266.276,239.715C263.246,236.723 267.672,236.581 267.913,233.565C269.886,208.84 294.279,220.044 286.264,226.199C281.942,229.517 278.068,219.812 276.797,224.578C276.563,225.455 273.904,235.426 278.468,235.793C286.253,236.42 280.923,239.834 280.558,239.871C276.799,240.247 276.451,240.711 276.158,244.501Z" style="fill:white;fill-opacity:0.93;"/>
        <path d="M274.153,182.489C271.96,196.543 257.264,193.571 253.691,186.404C253.116,185.25 249.222,177.44 257.736,170.799C258.902,169.89 266.19,168.007 269.675,171.295C274.327,175.684 273.884,176.16 274.153,182.489Z" style="fill:white;fill-opacity:0.97;"/>
        <path d="M253.5,258.167C251.839,258.121 250.176,258.231 248.514,258.185C242.997,258.033 249.339,254.815 249.132,251.495C248.425,240.159 249.967,228.753 248.035,224.736C245.396,219.251 255.798,219.022 256.597,219.343C259.357,220.45 257.576,241.382 258.094,253.573C258.152,254.932 259.666,256.037 259.759,256.403C260.384,258.855 257.141,258.366 253.5,258.167Z" style="fill:white;fill-opacity:0.81;"/>
        <path d="M446.032,247.501C447.435,229.796 464.191,234.103 466.601,239.453C471.573,250.489 451.062,242.762 454.701,249.406C459.198,257.615 466.863,248.444 467.722,252.424C469.148,259.035 445.791,264.319 446.032,247.501ZM456.55,242.02C454.403,241.015 454.48,239.904 456.679,238.97C457.946,238.431 461.643,241.227 456.55,242.02Z" style="fill:white;fill-opacity:0.89;"/>
        <path d="M439.558,242.649C437.311,241.102 432.642,236.188 432.825,240.49C432.905,242.368 436.059,243.641 437.442,244.586C439.049,245.625 439.053,245.604 439.195,245.752C449.798,256.851 424.451,264.698 423.9,254.478C423.405,245.308 428.188,253.677 430.401,254.71C430.73,254.863 436.404,254.86 430.729,250.194C425.664,246.028 422.567,245.183 425.702,238.602C429.429,230.775 446.434,235.715 439.558,242.649Z" style="fill:white;fill-opacity:0.94;"/>
        <path d="M412.139,245.499C412.147,246.952 410.951,253.437 414.425,255.627C417.763,257.732 414.26,258.792 413.539,258.82C409.481,258.975 409.557,258.483 405.521,258.792C402.357,259.035 399.435,257.177 402.577,255.602C404.361,254.708 404.945,243.171 402.788,240.29C400.856,237.711 405.009,236.251 405.379,236.121C409.79,234.57 410.165,233.065 411.914,235.057C413.491,236.853 420.707,232.998 420.763,238.498C420.83,245.096 412.473,239.273 412.167,243.447C412.117,244.129 412.189,244.817 412.139,245.499Z" style="fill:white;fill-opacity:0.94;"/>
        <path d="M408.179,174.472C408.349,173.902 409.615,169.659 412.434,168.369C417.558,166.025 420.223,167.08 418.627,172.536C417.556,176.2 418.651,181.78 415.428,182.049C408.885,182.593 408.251,175.308 408.179,174.472Z" style="fill:rgb(21,21,21);fill-opacity:0.04;"/>
        <path d="M226.832,246.498C227.007,244.392 226.786,242.471 228.319,240.383C234.137,232.458 237.282,257.794 229.409,254.654C226.602,253.535 227.845,252.571 226.832,246.498Z" style="fill:rgb(22,22,23);fill-opacity:0.04;"/>
        <path d="M355.234,240.688C359.62,252.313 352.792,258.923 350.367,252.56C349.399,250.019 348.461,233.58 355.234,240.688Z" style="fill:rgb(23,23,23);fill-opacity:0.04;"/>
        <path d="M439.558,242.649C438.853,243.295 438.147,243.94 437.442,244.586C436.059,243.641 432.905,242.368 432.825,240.49C432.642,236.188 437.311,241.102 439.558,242.649Z" style="fill:rgb(36,36,36);fill-opacity:0.07;"/>
        <path d="M456.55,242.02C454.403,241.015 454.48,239.904 456.679,238.97C457.946,238.431 461.643,241.227 456.55,242.02Z" style="fill:rgb(37,37,37);fill-opacity:0.07;"/>
        <path d="M110.358,129.785L108.783,130.596C108.751,130.364 108.151,125.957 110.083,127.97C110.184,128.076 110.103,128.105 110.358,129.785Z" style="fill:rgb(246,246,246);fill-opacity:0.25;"/>
        <path d="M171.315,128.715C169.989,129.708 169.907,129.554 169.808,129.655C169.933,129.381 169.841,129.04 169.965,128.765C170.282,128.069 170.569,127.865 170.645,127.811C171.292,127.353 170.855,128.094 171.315,128.715Z" style="fill:rgb(229,229,229);fill-opacity:0.37;"/>
    </g>
</svg>
