<?xml version="1.0" encoding="UTF-8" standalone="no"?><!DOCTYPE svg PUBLIC "-//W3C//DTD SVG 1.1//EN" "http://www.w3.org/Graphics/SVG/1.1/DTD/svg11.dtd"><svg width="100%" height="100%" viewBox="0 0 3446 2709" version="1.1" xmlns="http://www.w3.org/2000/svg" xmlns:xlink="http://www.w3.org/1999/xlink" xml:space="preserve" xmlns:serif="http://www.serif.com/" style="fill-rule:evenodd;clip-rule:evenodd;stroke-linejoin:round;stroke-miterlimit:2;"><g id="Background"><path d="M2049.358,1218.465c0.953,1.079 1.906,2.159 2.859,3.238c11.129,-2.614 11.139,-2.305 554.033,-2.305c176.414,0 186.7,-7.305 185.625,7.519c-0.993,13.686 -9.674,133.39 -15.786,170.795c-4.229,25.884 -47.516,543.646 -53.737,549.664c-2.092,2.024 -2.664,1.393 -974.232,152.088c-45.879,7.116 -45.912,0.105 -321.369,-41.473c-14.623,-2.207 -182.144,-27.493 -182.781,-27.641c-19.046,-4.411 -516.424,-77.244 -521.264,-82.209c-6.175,-6.334 -39.33,-415.971 -65.958,-679.453c-4.663,-46.14 -3.367,-46.865 0.038,-48.77c2.395,-1.34 737.691,-0.185 782.805,-0.557c9.646,-0.08 77.307,-36.206 84.864,-54.384c6.68,-16.069 -40.453,4.039 -66.977,-30.443c-20.328,-26.428 -43.729,-23.34 -77.77,-73.1c-3.665,-5.358 -13.421,-12.553 1.653,-13.072c13.506,-0.465 -1.302,-14.487 -14.869,-43.05c-9.356,-19.696 9.827,-15.838 14.475,-16.571c10.227,-1.613 0.254,-5.672 -18.045,-39.952c-10.949,-20.512 -20.826,-35.666 -6.738,-35.246c54.323,1.62 62.978,13.725 62.232,1.035c-0.632,-10.735 3.339,-9.259 12.84,-9.132c59.681,0.796 85.683,22.144 78.027,5.364c-1.859,-4.074 -23.989,-52.577 -7.415,-55.476c19.456,-3.403 4.211,-12.805 3.145,-44.922c-0.814,-24.509 62.329,12.517 64.241,0.164c2.115,-13.671 7.59,-8.449 20.566,-5.808c19.996,4.07 13.535,-12.81 30.396,-64.671c5.546,-17.058 1.7,-26.543 19.425,-22.407c4.546,1.061 13.252,-36.033 22.538,-52.084c5.117,-8.846 10.462,-1.289 14.735,0.318c10.917,4.107 36.953,-75.447 52.347,-53.906c26.562,37.167 32.662,62.102 42.975,51.634c11.443,-11.615 23.661,35.541 27.179,46.297c3.563,10.897 10.302,5.306 11.056,5.213c11.484,-1.404 24.509,62.971 28.291,78.797c6.941,29.045 39.355,-6.531 37.065,12.503c-1.619,13.453 7.093,4.841 47.316,-3.445c27.2,-5.603 16.545,18.188 10.474,44.688c-2.805,12.244 16.127,2.817 15.471,16.883c-1.696,36.364 -31.228,62.035 -1.036,50.422c14.808,-5.695 72.591,-13.27 77.992,-7.726c4.986,5.118 -5.514,15.186 5.018,12.551c3.729,-0.933 61.258,-10.509 65.217,-4.153c3.586,5.756 -25.914,54.137 -31.643,61.441c-13.114,16.72 5.085,10.729 12.086,13.354c16.49,6.184 -29.006,55.358 -16.461,57.761c2.633,0.504 5.497,-0.471 8.031,0.402c7.952,2.739 -22.808,46.484 -65.814,70.788c-32.003,18.086 40.917,2.321 58.068,45.09c13.137,32.759 -4.596,39.014 -11.192,53.945Z" style="fill:#1c1b1b;"/><path d="M720.396,1589.436c-1.565,-17.311 -15.981,-176.74 -19.915,-216.358c-11.361,-114.423 -11.468,-119.565 -2.513,-119.87c7.535,-0.257 958.286,-0.054 1041.615,-0.036c1010.281,0.216 1012.32,-0.961 1014.838,3.746c1.862,3.482 -60.351,657.194 -60.514,657.712c-1.756,5.615 -30.974,10.226 -33.772,10.668c-74.599,11.773 -647.16,102.131 -932.993,143.92c-8.173,1.195 -968.121,-147.319 -971.675,-148.992c-8.165,-3.843 -12.402,-103.539 -35.072,-330.79Z" style="fill:#e51735;"/><path d="M1806.051,977.009c-0.776,-0.955 0.653,-2.733 -0.122,-3.688c-1.705,-2.099 -33.078,-3.712 -56.901,13.58c-18.237,13.237 -20.317,4.742 -42.811,5.306c-34.403,0.862 -73.939,20.735 -74.423,22.716c-0.117,0.48 -1.462,5.986 -0.272,6.17c3.255,0.503 33.306,-14.775 66.499,-12.466c30.824,2.143 25.154,13.208 22.175,27.066c-11.292,52.523 19.153,84.67 -1.764,90.138c-37.783,9.877 -38.035,-14.014 -63.463,-34.247c-35.486,-28.236 49.36,68.452 5.449,68.487c-92.13,0.074 -92.002,-0.109 -100.002,-0.046c-35.347,0.282 7.509,-26.97 24.592,-22.639c1.65,0.418 57.467,14.569 21.197,-1.922c-23.898,-10.866 -21.401,-16.196 -16.346,-41.669c6.255,-31.522 -35.962,-42.245 -32.38,-49.547c5.849,-11.921 10.757,-10.708 18.991,0.06c7.551,9.875 11.68,-14.548 -3.598,-16.906c-22.191,-3.425 -29.958,22.138 -31.192,22.778c-17.395,9.024 -18.375,7.399 -32.233,21.648c-7.649,7.865 -11.096,2.336 -18.304,10.438c-12.356,13.888 11.903,12.205 23.199,-1.174c38.869,-46.037 68.081,-6.684 63.969,17.09c-4.792,27.705 -35.061,20.851 -47.364,27.729c-7.129,-1.691 -9.649,-9.837 -10.978,-2.603c-0.061,0.333 -0.252,1.374 1.711,3.869c1.134,1.44 3.029,2.153 4.162,3.593c-15.084,24.449 -41.831,4.831 -40.502,0.474c1.972,-6.466 2.244,-10.592 -4.005,-7.991c-15.016,6.249 -15.893,-1.02 -15.671,-16.972c0.365,-26.147 22.595,-81.372 53.601,-89.747c54.927,-14.837 82.341,-81.418 191.108,-86.445c161.024,-7.442 199.58,179.931 209.677,186.836c38.104,26.061 138.677,25.398 128.184,72.726c-12.279,55.381 -152.379,-18.227 -153.748,-33.461c-0.684,-7.611 -6.008,-66.845 -30.967,-90.359c-40.03,-37.712 20.041,19.368 11.661,73.541c-4.064,26.271 -13.116,20.721 -39.761,20.726c-140.195,0.022 -142.556,0.717 -144.299,-4.499c-10.254,-30.689 16.085,-8.915 60.5,-17.869c24.418,-4.923 -12.845,-26.708 -13.04,-85.64c-0.016,-4.777 -0.122,-36.93 19.51,-56.434c12.355,-12.274 36.263,-15.009 39.643,-15.395c2.773,-1.083 5.547,-2.167 8.32,-3.25Z" style="fill:#d5d6d8;"/><path d="M1968.49,1509.982c-2.031,3.587 -8.975,36.194 -59.341,204.242c-12.771,42.609 -10.697,42.892 -16.991,62.335c-5.324,16.449 -13.657,-18.761 -21.129,-40.514c-33.201,-96.66 -34.831,-95.731 -67.757,-192.699c-8.488,-24.997 -11.463,-52.968 -15.036,-29.323c-1.85,12.241 2.207,12.184 2.367,154.727c0.03,26.396 -3.346,85.961 13.454,98.921c0.559,0.431 10.998,8.484 1.96,8.599c-3.315,0.042 -3.145,-1.056 -41.435,-0.935c-1.655,0.005 -33.04,4.079 -18.645,-7.668c13.397,-10.932 13.415,-14.227 12.537,-294.734c-0.153,-49.033 -16.231,-45.907 -18.102,-50.467c-2.131,-5.193 2.758,-4.309 70.048,-4.117c12.538,0.036 11.594,5.508 63.119,166.866c17.996,56.355 18.067,64.544 24.159,58.368c4.367,-4.427 0.6,-6.084 21.325,-74.751c6.914,-22.907 6.666,-22.713 13.685,-45.479c27.265,-88.429 27.588,-104.956 40.18,-105.228c65.879,-1.425 67.285,-3.829 70.223,0.961c2.675,4.361 -14.606,1.645 -15.015,62.164c-1.807,267.241 -3.858,271.075 12.893,286.786c11.956,11.213 -31.326,5.789 -63.907,6.732c-12.641,0.366 -22.494,5.468 -16.848,-6.118c12.35,-25.344 11.199,-26.055 11.045,-116.565c-0.132,-77.482 -0.071,-77.162 1.523,-133.313c0.209,-7.381 -2.841,-5.79 -4.312,-8.788Z" style="fill:#fefefe;"/><path d="M927.647,1559.93c43.076,38.961 111.935,20.16 112.385,75.487c0.961,118.054 5.382,134.657 -42.061,142.018c-49.57,7.691 -130.367,-0.15 -141.647,-1.245c-3.255,-0.316 -22.198,3.031 -13.949,-7.955c18.13,-24.147 1.621,-123.465 13.417,-126.017c1.389,-0.301 49.696,6.471 53.454,10.87c10.676,12.495 -21.668,117.143 42.794,102.972c18.823,-4.138 19.272,-13.579 17.839,-99.868c-0.886,-53.326 -115.089,-31.187 -120.519,-95.913c-0.384,-4.579 -1.079,-98.136 0.389,-107.965c7.546,-50.541 107.317,-30.03 193.941,-32.915c15.459,-0.515 -3.721,8.834 -5.315,45.136c-1.631,37.15 5.055,88.806 -7.119,87.305c-53.53,-6.599 -53.689,-11.954 -53.822,-16.454c-1.689,-57.01 13.549,-99.457 -37.646,-94.108c-24.888,2.6 -21.712,24.236 -20.907,94.135c0.156,13.512 2.14,12.783 8.765,24.516Z" style="fill:#fefefe;"/><path d="M2364.71,1415.622c43.641,5.677 64.01,-6.259 74.048,11.909c15.848,28.683 116.43,218.077 117.282,218.134c7.806,0.521 2.846,-5.078 2.695,-97.749c-0.123,-75.515 2.601,-109.99 -12.595,-124.207c-11.289,-10.563 14.299,-4.412 55.844,-7.825c15.293,-1.256 -8.219,7.682 -9.694,44.437c-2.107,52.491 3.859,307.568 -2.917,312.24c-22.511,15.521 -37.772,-10.421 -39.461,-13.293c-13.684,-23.261 -92.211,-166.645 -120.355,-227.19c-10.551,-22.698 -7.559,6.631 -7.473,7.472c5.62,55.095 -11.956,205.972 15.34,228.302c5.493,4.494 2.415,7.109 -1.212,6.841c-26.199,-1.931 -58.816,1.47 -60.033,-0.88c-4.016,-7.755 12.362,-7.008 13.122,-46.741c0.401,-20.979 4.435,-231.94 -1.353,-262.276c-6.846,-35.882 -16.391,-30.783 -27.521,-46.045c1.428,-1.043 2.855,-2.087 4.283,-3.13Z" style="fill:#fefefe;"/><path d="M2146.458,1775.036c-53.621,-1.628 -76.545,6.672 -61.037,-10.449c26.813,-29.602 90.099,-341.394 104.048,-346.165c1.346,-0.46 42.749,-4.308 46.137,4.4c19.066,48.996 74.514,316.786 106.154,343.767c1.188,1.013 6.34,8.695 -1.411,8.182c-81.324,-5.385 -82.541,5.42 -87.932,0.9c-8.141,-6.827 11.539,-8.152 6.443,-31.702c-14.036,-64.869 -18.644,-64.268 -23.292,-64.599c-6.876,-0.489 -79.247,-5.641 -86.106,3.093c-0.033,0.042 -24.164,66.599 -10.236,82.371c2.097,2.375 6.805,2.191 7.231,10.202Z" style="fill:#fefefe;"/><path d="M1520.784,1422.111c0.018,-0.013 1.106,-4.416 6.086,-4.319c151.733,2.96 161.17,-5.48 161.418,9.357c1.222,73.197 6.065,74.999 0.924,78.624c-9.738,6.868 -4.951,-39.682 -32.757,-46.047c-10.848,-2.483 -54.21,-0.988 -54.865,-0.858c-8.309,1.651 -6.668,5.662 -5.148,105.764c0.258,16.96 52.427,10.2 59.311,3.531c0.571,-0.553 15.592,-31.801 14.477,-12.188c-4.191,73.731 1.565,74.103 -0.79,80.059c-6.753,17.083 -2.127,-11.155 -18.271,-19.493c-7.31,-3.776 -47.185,-2.489 -49.103,-2.018c-8.763,2.153 -8.561,5.971 -5.361,112.662c0.268,8.936 9.075,8.132 9.545,8.138c53.27,0.687 76.783,5.42 90.102,-42.324c0.219,-0.786 16.618,-42.112 9.609,-3.439c-13.917,76.791 -5.799,85.766 -20.576,85.916c-12.643,0.128 -140.05,1.417 -158.043,0.827c-5.573,-0.183 -0.516,-7.006 -0.159,-7.488c13.953,-18.825 11.845,-26.65 11.694,-104.233c-0.421,-217.172 2.698,-221.218 -18.097,-242.472Z" style="fill:#fefefe;"/><path d="M1463.798,1722.227c10.676,-16.899 9.199,-17.383 15.047,-36.247c2.517,-8.119 9.918,-5.711 9.087,-0.557c-12.838,79.61 -9.432,80.386 -12.725,86.563c-4.098,7.688 -132.973,2.195 -156.449,4.003c-1.052,0.081 -17.422,1.342 -11.499,-6.452c14.574,-19.176 14.824,-21.395 12.38,-300.818c-0.362,-41.427 -16.573,-41.778 -17.22,-45.904c-1.232,-7.863 3.804,-3.631 20.497,-3.456c138.856,1.453 146.087,-4.175 146.473,7.669c2.439,74.891 5.09,76.644 -0.495,79.725c-7.917,4.368 -2.538,-31.108 -26.122,-44.554c-10.157,-5.791 -60.102,-3.199 -61.884,-2.485c-3.796,1.522 -3.752,27.461 -3.748,29.869c0.119,70.549 -2.522,84.068 8.139,84.818c55.021,3.87 55.161,-11.057 56.925,-15.179c0.304,-0.71 11.83,-27.65 9.202,-2.934c-6.047,56.877 9.593,122.428 -9.276,72.164c-7.762,-20.677 -64.349,-18.342 -64.733,-5.518c-3.232,107.887 -1.027,112.386 8.004,112.652c65.684,1.937 66.927,-3.581 78.396,-13.36Z" style="fill:#fefdfe;"/><path d="M1247.393,1722.438c17.571,-23.539 15.28,-33.319 18.808,-44.877c2.588,-8.479 9.32,-3.674 9.044,-0.442c-0.627,7.35 -1.489,7.122 -11.656,91.473c-1.03,8.547 -9.936,7.376 -11.511,7.383c-151.104,0.596 -164.112,4.042 -156.943,-6.278c11.681,-16.815 11.067,-21.604 10.963,-80.114c-0.109,-74.986 -0.218,-149.972 -0.327,-224.957c-0.015,-36.399 -25.609,-46.746 -7.844,-45.767c47.256,2.604 66.958,-0.353 74.947,-0.003c9.691,0.424 1.425,4.702 -4.028,12.45c-9.587,13.622 -7.487,60.01 -7.441,99.945c0.23,199.559 -0.717,204.324 7.286,204.646c70.578,2.837 71.745,-7.631 78.7,-13.458Z" style="fill:#fefefe;"/><path d="M2537.727,1913.423c-7.113,2.706 -818.081,121.544 -818.914,121.452c-2.207,-0.243 -470.199,-73.622 -741.842,-111.509c-2.182,-0.304 -93.333,-11.376 -66.426,-16.827c5.343,-1.082 792.835,109.273 820.426,106.016c207.018,-24.437 206.439,-25.767 783.614,-102.285c13.348,-1.77 16.66,-8.982 23.141,3.154Z" style="fill:#fdeff1;"/><path d="M1716.107,835.445c0.012,-2.535 0.136,-28.898 -3.028,-31.541c-4.843,-4.045 -47.594,-39.749 -45.308,-64.558c1.698,-18.431 20.282,34.792 42.555,46.262c11.883,6.119 5.718,-5.692 7.526,-62.798c4.159,-131.394 9.786,53.618 9.93,58.351c0.297,9.764 19.78,2.429 37.569,-32.806c22.514,-44.594 11.752,21.859 -22.908,47.968c-17.909,13.49 -13.942,16.63 -13.853,39.068c0.078,19.485 -2.682,33.308 14.064,23.26c58.444,-35.065 69.004,-104.02 66.537,-69.09c-3.083,43.662 -65.495,83.552 -73.239,88.502c-12.709,8.123 -0.872,36.19 -13.032,36.638c-18.998,0.7 7.16,-23.64 -19.766,-39.629c-59.606,-35.393 -67.784,-88.305 -66.967,-89.26c10.979,-12.822 0.997,31.493 66.722,73.258c8.036,5.106 12.715,7.104 13.013,-2.677c0.213,-6.98 -0.028,-13.969 0.185,-20.948Z" style="fill:#e8e9ea;"/><path d="M2188.613,1526.837c0.632,-4.183 3.248,-26.909 8.798,-18.696c8.247,12.205 2.979,13.737 6.805,27.842c2.074,7.648 17.132,63.172 25.484,95.716c2.931,11.422 -10.619,9.862 -61.014,9.37c-12.642,-0.123 -7.589,-8.102 19.927,-114.232Z" style="fill:#e3122e;"/><path d="M977.617,1622.396c26.236,34.458 8.307,121.157 7.886,121.472c-20.847,15.595 18.073,-94.736 -26.54,-123.121c-40.006,-25.454 -98.677,-17.265 -99.964,-68.62c-2.33,-92.953 -2.337,-97.054 5.464,-97.574c16.979,-1.133 -17.029,112.337 25.996,129.112c24.596,9.59 63.217,16.778 87.158,38.731Z" style="fill:#de0308;"/><path d="M2238.336,1585.759c21.302,81.597 49.911,169.148 30.332,153.971c-3.953,-3.064 -25.953,-96.253 -27.945,-104.689c-39.358,-166.714 -48.43,-164.026 -49.677,-178.821c-0.148,-1.755 8.729,-12.034 15.669,12.397c2.653,9.337 2.326,9.286 31.621,117.142Z" style="fill:#df040d;"/><path d="M1341.349,1722.928c-2.149,25.185 -8.885,22.35 -10.402,21.222c-0.312,-0.232 -0.324,-0.285 -0.677,-200.4c-0.111,-62.994 -2.976,-90.319 9.775,-88.154c1.277,0.217 0.882,1.159 1.304,267.332Z" style="fill:#d00;"/><path d="M2450.525,1532.101c72.269,131.58 108.621,193.151 85.108,177.827c-0.082,-0.054 -84.767,-157.071 -128.356,-233.418c-1.022,-1.79 -16.611,-29.095 -4.867,-25.296c4.883,1.58 10.661,13.041 48.115,80.887Z" style="fill:#de0006;"/><path d="M1992.356,1727.018c-0.221,1.559 -3.474,24.499 -10.806,16.447c-4.025,-4.419 0.35,-5.483 0.316,-74.714c-0.096,-192.45 -2.53,-234.151 10.939,-212.026c3.967,6.516 -0.393,7.252 -0.393,95.359c-0.018,58.311 -0.036,116.623 -0.054,174.934Z" style="fill:#e00819;"/><path d="M1559.884,1481.251c0.438,240.67 2.485,285.891 -10.546,261.609c-3.592,-6.693 0.374,-7.286 0.213,-94.952c-0.323,-175.352 -2.385,-206.851 10.625,-191.495c1.285,1.516 0.689,1.743 -0.291,24.839Z" style="fill:#e00112;"/><path d="M1126.015,1518.75c0.287,204.596 2.342,243.941 -10.212,223.932c-4.206,-6.704 0.244,-7.508 0.112,-98.932c-0.232,-160.444 -2.399,-206.977 10.319,-187.052c2.671,4.184 -0.302,4.35 -0.219,62.051Z" style="fill:#e00012;"/><path d="M2014.39,1019.142c-1.377,13.83 -6.957,9.083 -20.916,10.784c-51.999,6.338 -52.333,3.254 -70.64,3.668c-7.972,0.18 -14.381,12.523 -20.418,5.738c-8.174,-9.186 36.838,-43.388 40.771,-46.376c11.46,-8.708 13.445,-35.447 22.275,-43.949c15.092,-14.532 -4.203,24.19 -0.498,27.671c3.82,3.589 4.16,0.267 16.981,-6.485c2.869,-1.511 31.288,-16.477 36.779,-17.023c31.546,-3.139 -15.428,6.101 -80.404,60.25c-20.797,17.332 38.63,8.514 76.071,5.723Z" style="fill:#dfdfe1;"/><path d="M1868.427,1696.366c-8.219,-12.54 -6.01,-13.53 -37.251,-102.59c-44.602,-127.148 -49.731,-125.819 -49.467,-137.507c0.043,-1.909 8.381,-9.744 17.569,16.159c76.092,214.538 76.375,217.943 69.149,223.938Z" style="fill:#df0813;"/><path d="M1420.07,1020.253c34.649,-10.567 80.707,-14.462 51.769,-33.29c-18.738,-12.191 -60.721,-30.808 -45.915,-32.616c13.292,-1.623 60.768,37.296 53.683,14.517c-1.861,-5.985 -11.101,-22.689 -2.409,-21.344c11.135,1.723 5.906,32.036 28.205,47.422c19.845,13.693 -71.574,29.752 -78.199,30.916c-2.378,-1.868 -4.757,-3.737 -7.135,-5.605Z" style="fill:#e5e5e6;"/><path d="M1898.359,833.086c0.248,1.246 2.447,1.448 2.695,2.694c1.777,8.918 -6.79,4.283 -53.124,53.816c-26.281,28.096 38.109,6.182 41.477,8.758c12.609,9.642 -53.377,15.618 -58.186,16.053c-9.302,0.842 -17.101,21.092 -24.904,20.608c-23.054,-1.433 52.527,-74.658 92.041,-101.929Z" style="fill:#e7e8e9;"/><path d="M1544.081,833.269c21.502,11.552 20.106,12.971 38.536,29.264c4.995,4.416 55.065,48.677 57.769,60.069c0.343,1.443 -2.081,15.143 -18.257,-3.19c-7.041,-7.98 -52.178,-6.095 -65.19,-14.053c-27.235,-16.658 64.033,10.671 44.508,-11.114c-28.312,-31.589 -57.374,-48.93 -57.367,-60.976Z" style="fill:#eaeaeb;"/><path d="M1735.954,1184.449c49.997,19.239 83.486,15.815 58.47,22.719c-9.643,2.661 -175.616,-32.727 -92.339,-28.933c17.64,0.804 18.338,-2.408 33.869,6.214Z" style="fill:#dedfe1;"/><path d="M1615.397,1183.968c28.683,10.771 28.773,9.736 58.342,17.227c32.34,8.192 -12.344,8.775 -96.227,-12.92c-1.337,-0.346 -28.342,-7.33 -12.995,-11.355c2.904,-0.762 2.672,0.476 37.494,1.506c6.322,0.187 5.766,1.517 13.386,5.543Z" style="fill:#dcdddf;"/><path d="M1917.095,1203.15c-5.395,3.902 -5.798,6.377 -35.927,-0.415c-44.538,-10.041 -72.617,-15.687 -78.046,-18.777c-15.312,-8.714 37.914,-7.174 45.186,-3.575c32.578,16.121 34.764,9.46 68.786,22.768Z" style="fill:#dedfe1;"/><path d="M1530.944,1125.912l-5.104,4.858c-1.134,-1.44 -3.029,-2.153 -4.162,-3.593c-1.963,-2.495 -1.772,-3.536 -1.711,-3.869c1.329,-7.233 3.848,0.913 10.978,2.603Z" style="fill:#565556;"/><path d="M1420.07,1020.253c2.378,1.868 4.757,3.737 7.135,5.605c-5.73,-0.66 -7.116,-0.134 -7.135,-5.605Z" style="fill:#474446;"/><path d="M1806.051,977.009c-2.773,1.083 -5.547,2.167 -8.32,3.25c4.536,-1.463 3.98,-1.87 8.32,-3.25Z" style="fill:#a7a7a9;"/></g></svg>